HIERARCHY
ROOT Hips
{
	OFFSET 0.000000 0.000000 0.000000
	CHANNELS 6 Xposition Yposition Zposition Zrotation Yrotation Xrotation 
	JOINT LHipJoint
	{
		OFFSET 0.000000 0.000000 0.000000
		CHANNELS 3 Zrotation Yrotation Xrotation
		JOINT LeftUpLeg
		{
			OFFSET 1.363060 -1.794630 0.839290
			CHANNELS 3 Zrotation Yrotation Xrotation
			JOINT LeftLeg
			{
				OFFSET 2.448110 -6.726130 0.000000
				CHANNELS 3 Zrotation Yrotation Xrotation
				JOINT LeftFoot
				{
					OFFSET 2.562200 -7.039590 0.000000
					CHANNELS 3 Zrotation Yrotation Xrotation
					JOINT LeftToeBase
					{
						OFFSET 0.157640 -0.433110 2.322550
						CHANNELS 3 Zrotation Yrotation Xrotation
						End Site
						{
							OFFSET 0.000000 0.000000 0.000000
						}
					}
				}
			}
		}
	}
	JOINT RHipJoint
	{
		OFFSET 0.000000 0.000000 0.000000
		CHANNELS 3 Zrotation Yrotation Xrotation
		JOINT RightUpLeg
		{
			OFFSET -1.305520 -1.794630 0.839290
			CHANNELS 3 Zrotation Yrotation Xrotation
			JOINT RightLeg
			{
				OFFSET -2.542530 -6.985550 0.000000
				CHANNELS 3 Zrotation Yrotation Xrotation
				JOINT RightFoot
				{
					OFFSET -2.568260 -7.056230 0.000000
					CHANNELS 3 Zrotation Yrotation Xrotation
					JOINT RightToeBase
					{
						OFFSET -0.164730 -0.452590 2.363150
						CHANNELS 3 Zrotation Yrotation Xrotation
						End Site
						{
							OFFSET 0.000000 0.000000 0.000000
						}
					}
				}
			}
		}
	}
	JOINT LowerBack
	{
		OFFSET 0.000000 0.000000 0.000000
		CHANNELS 3 Zrotation Yrotation Xrotation
		JOINT Spine
		{
			OFFSET 0.028270 2.035590 -0.193380
			CHANNELS 3 Zrotation Yrotation Xrotation
			JOINT Spine1
			{
				OFFSET 0.056720 2.048850 -0.042750
				CHANNELS 3 Zrotation Yrotation Xrotation
				JOINT Neck
				{
					OFFSET 0.000000 0.000000 0.000000
					CHANNELS 3 Zrotation Yrotation Xrotation
					JOINT Neck1
					{
						OFFSET -0.054170 1.746240 0.172020
						CHANNELS 3 Zrotation Yrotation Xrotation
						JOINT Head
						{
							OFFSET 0.104070 1.761360 -0.123970
							CHANNELS 3 Zrotation Yrotation Xrotation
							End Site
							{
								OFFSET 0.000000 0.000000 0.000000
							}
						}
					}
				}
				JOINT LeftShoulder
				{
					OFFSET 0.000000 0.000000 0.000000
					CHANNELS 3 Zrotation Yrotation Xrotation
					JOINT LeftArm
					{
						OFFSET 3.362410 1.200890 -0.311210
						CHANNELS 3 Zrotation Yrotation Xrotation
						JOINT LeftForeArm
						{
							OFFSET 4.983000 -0.000000 -0.000000
							CHANNELS 3 Zrotation Yrotation Xrotation
							JOINT LeftHand
							{
								OFFSET 3.483560 -0.000000 -0.000000
								CHANNELS 3 Zrotation Yrotation Xrotation
								JOINT LeftFingerBase
								{
									OFFSET 0.000000 0.000000 0.000000
									CHANNELS 3 Zrotation Yrotation Xrotation
									JOINT LeftHandIndex1
									{
										OFFSET 0.715260 -0.000000 -0.000000
										CHANNELS 3 Zrotation Yrotation Xrotation
										End Site
										{
											OFFSET 0.000000 0.000000 0.000000
										}
									}
								}
								JOINT LThumb
								{
									OFFSET 0.000000 0.000000 0.000000
									CHANNELS 3 Zrotation Yrotation Xrotation
									End Site
									{
										OFFSET 0.000000 0.000000 0.000000
									}
								}
							}
						}
					}
				}
				JOINT RightShoulder
				{
					OFFSET 0.000000 0.000000 0.000000
					CHANNELS 3 Zrotation Yrotation Xrotation
					JOINT RightArm
					{
						OFFSET -3.136600 1.374050 -0.404650
						CHANNELS 3 Zrotation Yrotation Xrotation
						JOINT RightForeArm
						{
							OFFSET -5.241900 -0.000000 -0.000000
							CHANNELS 3 Zrotation Yrotation Xrotation
							JOINT RightHand
							{
								OFFSET -3.444170 -0.000000 -0.000000
								CHANNELS 3 Zrotation Yrotation Xrotation
								JOINT RightFingerBase
								{
									OFFSET 0.000000 0.000000 0.000000
									CHANNELS 3 Zrotation Yrotation Xrotation
									JOINT RightHandIndex1
									{
										OFFSET -0.622530 -0.000000 -0.000000
										CHANNELS 3 Zrotation Yrotation Xrotation
										End Site
										{
											OFFSET 0.000000 0.000000 0.000000
										}
									}
								}
								JOINT RThumb
								{
									OFFSET 0.000000 0.000000 0.000000
									CHANNELS 3 Zrotation Yrotation Xrotation
									End Site
									{
										OFFSET 0.000000 0.000000 0.000000
									}
								}
							}
						}
					}
				}
			}
		}
	}
}
MOTION
Frames: 10
Frame Time: 0.008333
9.770250 25.933342 -10.310979 -6.596641 -15.562646 28.909759 12.463770 -47.518302 17.882404 16.721358 27.088530 -31.508652 -51.652420 39.257539 15.845433 30.102635 -4.809431 41.579053 1.798900 -8.434000 -24.040100 -23.642823 52.718988 4.017012 10.266813 46.225206 -32.946609 -10.525199 49.325547 69.636310 -36.830311 -31.514932 67.067354 -0.801700 5.714800 -15.959000 -6.139067 -11.611627 -11.702781 10.798139 25.327478 34.259483 -4.994470 18.266535 3.514659 -2.405389 -2.261287 -9.121807 4.171214 -3.409469 5.964487 3.658600 -1.834100 6.977200 -3.064533 -7.844510 1.086763 -73.562366 -32.234506 63.367990 18.834493 -29.476660 -8.824771 -16.630857 -7.548448 29.796049 32.815900 42.641580 36.398100 -7.125000 0.000000 0.000000 -110.098900 -88.584300 111.434400 -11.740015 19.229000 -1.216753 72.673029 36.179202 58.205836 -24.082971 18.640650 -9.801200 6.465339 -8.242402 15.192857 -51.443531 15.837271 -32.672700 7.125000 0.000000 0.000000 -18.416200 6.750000 -21.534800 
9.767132 25.935569 -10.309198 -5.818286 -14.285746 27.365498 12.992232 -46.953593 14.724715 18.306211 26.568246 -30.844389 -51.758043 41.072898 17.945783 29.652031 -5.285758 42.559109 1.968300 -8.799700 -25.170800 -22.156658 49.265883 1.872922 13.419611 39.285980 -33.986879 -8.930530 49.631254 71.608254 -38.653851 -29.609546 62.426104 -0.842800 5.855900 -16.367000 -6.786182 -11.563352 -10.903890 12.468495 23.495337 34.981718 -5.154004 19.734100 4.510750 -2.583979 -2.359112 -9.295955 4.084325 -3.411419 6.013891 3.641700 -1.840700 6.963300 -4.662182 -7.917015 1.329977 -72.132426 -32.035804 63.477671 18.408817 -28.608585 -8.806689 -16.737710 -7.820419 29.628210 32.096719 42.545466 35.798300 -7.125000 0.000000 0.000000 -103.801100 -88.275500 105.482600 -9.884850 20.371316 -0.801230 70.608920 35.924977 58.035204 -23.415404 17.306716 -9.843629 6.612753 -8.384606 14.957803 -51.414113 15.685067 -32.804600 7.125000 0.000000 0.000000 -18.500300 6.827500 -21.666000 
9.772328 25.940469 -10.315582 -5.171888 -12.020628 24.536284 13.718401 -45.669596 11.033767 15.853747 29.098761 -29.198521 -52.009049 44.094992 18.210727 25.908580 -6.594557 43.145133 2.144800 -9.161400 -26.301400 -21.848241 45.951411 -0.248530 17.716625 33.845723 -33.200507 -7.071697 48.702823 73.956543 -40.604042 -27.310865 58.411565 -0.998200 6.358100 -17.827100 -7.179375 -11.887515 -8.774918 15.452651 21.870834 35.089418 -5.813386 21.936937 6.215737 -2.994429 -2.407170 -9.780262 3.977407 -3.414483 6.142159 3.766000 -1.862200 7.238500 -6.105451 -7.486128 1.812589 -71.467272 -31.774684 63.850640 18.028713 -27.985600 -8.824639 -16.866780 -8.148719 29.142139 32.062666 42.585187 35.923700 -7.125000 0.000000 0.000000 -109.770900 -88.137600 111.533900 -8.548617 21.372103 -0.267089 69.195876 35.688965 57.625917 -22.890748 15.894270 -9.959766 6.601090 -8.534598 14.822283 -51.411597 15.593621 -32.971200 7.125000 0.000000 0.000000 -18.494800 7.005300 -21.709400 
9.757778 25.937648 -10.312316 -4.878007 -11.189339 24.559418 13.697193 -45.399500 10.983598 15.907734 29.187410 -29.528509 -52.063675 43.931274 18.142449 25.894038 -7.191911 42.925807 2.152500 -9.176800 -26.349800 -22.129872 45.937815 0.273811 17.349864 34.901785 -32.539753 -7.667450 48.574838 73.524794 -40.443409 -26.991659 58.642339 -0.533700 4.681000 -13.000800 -7.406601 -11.730435 -9.006643 16.868281 22.966537 34.198035 -5.977321 21.891015 7.768651 -3.913575 -2.604144 -11.048714 3.842650 -3.584102 6.177202 3.953600 -1.962800 7.850700 -4.793518 -7.003029 2.264547 -73.425704 -33.170365 64.149656 18.425076 -28.847208 -8.903463 -16.808644 -8.063818 28.842117 32.509671 42.971250 36.410500 -7.125000 0.000000 0.000000 -118.828200 -88.142500 120.468800 -9.784840 20.199431 -0.210573 69.969735 36.560651 57.052331 -23.259536 16.041790 -10.017663 6.398901 -8.526198 14.709697 -51.550104 15.499929 -32.957200 7.125000 0.000000 0.000000 -18.462000 7.014300 -21.669300 
9.757630 25.937945 -10.306822 -5.016114 -10.029686 22.115596 13.248989 -44.170982 9.541044 14.749283 29.375933 -28.040795 -52.184536 44.544385 18.624043 24.084297 -6.875057 43.614003 2.131700 -9.135200 -26.219300 -21.476339 41.667513 -3.512745 22.251559 29.778118 -31.123596 -6.093630 48.138816 75.476024 -41.865118 -24.936782 55.000038 -0.765300 5.586300 -15.588700 -7.021612 -12.090333 -7.192669 17.665551 23.930733 34.236983 -6.183435 22.348553 7.839934 -3.643702 -2.665496 -9.812492 3.798531 -3.604572 6.197899 3.888900 -1.987100 7.502600 -4.712817 -6.410050 2.522141 -75.305402 -31.964459 64.275923 18.305023 -29.290128 -8.736778 -16.563135 -7.808910 29.620302 32.688489 42.928898 36.313900 -7.125000 0.000000 0.000000 -115.796700 -88.222700 117.408200 -9.621259 20.172021 0.166642 71.325127 35.477951 56.919485 -23.405783 15.760285 -9.961495 6.279775 -8.433683 14.790914 -51.736279 15.490412 -32.932700 7.125000 0.000000 0.000000 -18.511700 6.953100 -21.716500 
9.774258 25.940766 -10.310385 -5.152668 -8.722135 19.397673 13.353248 -41.998252 7.810191 13.021325 28.994103 -26.150173 -52.681874 45.555553 17.482287 21.353208 -6.558017 43.956013 2.085500 -9.041900 -25.926500 -21.504344 37.890817 -7.874594 27.288329 25.265569 -28.586137 -5.520764 48.420945 76.469792 -43.006254 -22.495895 51.381185 -1.183600 6.904300 -19.432200 -6.204258 -12.716774 -4.874980 17.766829 23.754790 34.897163 -6.312761 23.037113 8.002153 -3.340398 -2.565861 -9.543957 3.891144 -3.540209 6.250931 3.931200 -1.967300 7.454000 -5.435249 -6.364604 2.670286 -75.275336 -31.458700 64.205796 18.074192 -28.914636 -8.637422 -16.560774 -7.626097 30.023901 32.753840 42.631080 36.264400 -7.125000 0.000000 0.000000 -109.641100 -88.471400 111.087600 -9.031176 20.793222 0.362069 71.038924 35.232304 56.843264 -23.137269 15.072036 -9.994018 6.292212 -8.462457 14.547888 -51.575474 15.358139 -32.706400 7.125000 0.000000 0.000000 -18.444100 6.765200 -21.575300 
9.769507 25.937203 -10.309792 -5.302862 -11.676191 22.602014 12.928499 -43.039947 9.523068 16.643866 26.190659 -27.686887 -52.768588 44.259022 17.898751 24.685713 -5.584371 43.700751 2.007000 -8.880600 -25.422600 -20.141658 40.903558 -5.162840 21.819774 27.568441 -31.814827 -6.548881 47.636600 75.153507 -41.408251 -25.239931 53.650800 -0.982200 6.308600 -17.682400 -6.270273 -12.829177 -7.345751 13.742247 24.026184 35.596425 -5.034075 21.093648 6.282258 -3.427466 -2.432556 -9.758062 4.197668 -3.528602 6.171177 4.160600 -1.983300 7.565400 -5.084499 -7.630393 1.892090 -73.522686 -32.302263 64.013221 18.191068 -28.405264 -8.653416 -16.832606 -7.554771 29.883924 32.774242 42.532767 36.472400 -7.125000 0.000000 0.000000 -110.857900 -88.630500 112.143500 -9.192894 20.629029 -0.348687 69.900106 35.791072 57.215479 -23.084267 16.020777 -9.879997 6.542935 -8.505628 14.499300 -51.329787 15.452287 -32.707500 7.125000 0.000000 0.000000 -18.425900 6.779400 -21.555800 
9.760302 25.935421 -10.302962 -5.180254 -12.596498 23.516433 12.217714 -43.247148 10.706246 18.124269 24.367416 -28.183995 -52.436452 43.322473 18.048864 26.554325 -5.718868 43.239610 2.006500 -8.879600 -25.419500 -18.710104 40.506007 -5.080070 20.338249 27.397151 -32.592678 -7.102163 47.790593 74.804596 -40.578987 -25.950036 54.046271 -0.950200 6.207700 -17.388200 -6.510701 -12.485581 -8.194012 12.749209 24.239544 35.614386 -4.764854 20.151602 5.755750 -3.287935 -2.472865 -9.756490 4.169934 -3.570319 6.109520 4.043700 -1.984400 7.439700 -4.654211 -7.941575 1.703972 -73.421103 -32.724837 64.017138 18.179043 -28.367779 -8.636232 -16.886086 -7.631173 29.732549 32.722744 42.682649 36.512800 -7.125000 0.000000 0.000000 -114.827500 -88.502600 116.194300 -9.472423 20.255167 -0.537477 70.182269 36.055487 57.329875 -23.121591 16.377565 -9.776970 6.596729 -8.514898 14.625625 -51.473141 15.489691 -32.919900 7.125000 0.000000 0.000000 -18.536500 6.921900 -21.740000 
9.771586 25.936906 -10.303407 -4.730317 -8.522838 17.955674 10.165082 -39.567482 9.042477 15.641360 25.146702 -25.318276 -51.903465 45.102556 17.874876 22.805396 -8.072664 42.825117 2.179300 -9.230000 -26.517500 -15.773847 29.578861 -14.034775 30.977261 17.573573 -26.805721 -9.230874 50.205553 76.301830 -39.819754 -21.241284 47.485742 -0.984700 6.316300 -17.705000 -6.447440 -12.105429 -3.955239 17.506776 24.707989 35.034769 -6.364383 21.430689 7.861992 -3.354370 -2.658242 -9.659022 3.706994 -3.557933 6.168455 3.801400 -1.957900 7.337000 -4.448151 -6.636915 2.720841 -76.352755 -32.266754 64.376888 18.055728 -29.163629 -8.536493 -16.519563 -7.639967 29.743810 32.899898 42.792395 36.431800 -7.125000 0.000000 0.000000 -113.798300 -88.462000 115.213500 -9.716588 19.645713 0.284146 72.470240 35.738467 56.917693 -23.372737 15.334311 -9.825044 6.189834 -8.425546 14.568113 -51.783336 15.406620 -32.875400 7.125000 0.000000 0.000000 -18.485800 6.911700 -21.671200 
9.777079 25.939727 -10.307268 -4.188577 -4.940642 14.548914 9.061429 -37.635301 7.854302 13.389636 27.710155 -24.041238 -51.412688 46.515432 18.044575 19.442327 -9.921915 42.949623 2.234400 -9.338200 -26.859100 -15.256110 23.968740 -18.015083 36.518267 13.607607 -21.110525 -12.802505 55.395084 74.167108 -38.118841 -18.455535 46.178590 -1.102900 6.672800 -18.749600 -6.299216 -11.712253 -1.248397 21.475414 23.876085 33.856614 -7.450704 22.770391 9.658943 -3.794260 -2.756218 -9.759293 3.424782 -3.494281 6.219567 3.812500 -1.938700 7.368300 -4.708517 -5.744961 3.485683 -78.341136 -31.787199 64.927148 17.719492 -29.404638 -8.434531 -16.238969 -7.646330 29.531179 33.265377 42.673402 36.558900 -7.125000 0.000000 0.000000 -112.173400 -88.668200 113.412400 -9.363819 19.342612 0.985455 73.595183 35.188340 56.679508 -23.361148 14.361409 -9.879394 5.901952 -8.342166 14.419360 -51.899860 15.452133 -32.819800 7.125000 0.000000 0.000000 -18.355700 6.947300 -21.512200 
